<mxfile host="app.diagrams.net" modified="2024-01-31T18:40:04.207Z" agent="Mozilla/5.0 (Windows NT 10.0; Win64; x64) AppleWebKit/537.36 (KHTML, like Gecko) Chrome/120.0.0.0 Safari/537.36" etag="TzPWl6sdgwqygYIbE14r" version="23.0.2" type="device">
  <diagram name="Page-1" id="tCdneItJejJCWjUQ3xzP">
    <mxGraphModel dx="1558" dy="580" grid="1" gridSize="10" guides="1" tooltips="1" connect="1" arrows="1" fold="1" page="1" pageScale="1" pageWidth="827" pageHeight="1169" math="0" shadow="0">
      <root>
        <mxCell id="0" />
        <mxCell id="1" parent="0" />
        <mxCell id="LS08MMSLiG0jWFHDryba-1" value="" style="rounded=0;whiteSpace=wrap;html=1;" vertex="1" parent="1">
          <mxGeometry x="180" y="168" width="370" height="582" as="geometry" />
        </mxCell>
        <mxCell id="kO_Ikqnd_BB1pQEZiAFS-1" value="Client" style="shape=umlActor;verticalLabelPosition=bottom;verticalAlign=top;html=1;outlineConnect=0;" parent="1" vertex="1">
          <mxGeometry x="90" y="300" width="30" height="60" as="geometry" />
        </mxCell>
        <mxCell id="kO_Ikqnd_BB1pQEZiAFS-3" value="s&#39;authentifier" style="ellipse;whiteSpace=wrap;html=1;" parent="1" vertex="1">
          <mxGeometry x="240" y="230" width="100" height="50" as="geometry" />
        </mxCell>
        <mxCell id="kO_Ikqnd_BB1pQEZiAFS-7" value="Ajouter au panier" style="ellipse;whiteSpace=wrap;html=1;" parent="1" vertex="1">
          <mxGeometry x="364" y="260" width="100" height="50" as="geometry" />
        </mxCell>
        <mxCell id="kO_Ikqnd_BB1pQEZiAFS-8" value="Passer la commande" style="ellipse;whiteSpace=wrap;html=1;" parent="1" vertex="1">
          <mxGeometry x="250" y="305" width="100" height="50" as="geometry" />
        </mxCell>
        <mxCell id="kO_Ikqnd_BB1pQEZiAFS-10" value="Recevoir ordre de commande ou un litige" style="ellipse;whiteSpace=wrap;html=1;" parent="1" vertex="1">
          <mxGeometry x="205" y="410" width="125" height="50" as="geometry" />
        </mxCell>
        <mxCell id="kO_Ikqnd_BB1pQEZiAFS-14" value="Accepter commande" style="ellipse;whiteSpace=wrap;html=1;" parent="1" vertex="1">
          <mxGeometry x="346.5" y="470" width="135" height="50" as="geometry" />
        </mxCell>
        <mxCell id="kO_Ikqnd_BB1pQEZiAFS-15" value="Admin du compte restaurant" style="shape=umlActor;verticalLabelPosition=bottom;verticalAlign=top;html=1;outlineConnect=0;" parent="1" vertex="1">
          <mxGeometry x="80" y="460" width="30" height="60" as="geometry" />
        </mxCell>
        <mxCell id="kO_Ikqnd_BB1pQEZiAFS-21" value="LIvreur" style="shape=umlActor;verticalLabelPosition=bottom;verticalAlign=top;html=1;outlineConnect=0;" parent="1" vertex="1">
          <mxGeometry x="80" y="600" width="30" height="60" as="geometry" />
        </mxCell>
        <mxCell id="kO_Ikqnd_BB1pQEZiAFS-23" value="Affecter un livreur&amp;nbsp;" style="ellipse;whiteSpace=wrap;html=1;" parent="1" vertex="1">
          <mxGeometry x="210" y="520" width="120" height="40" as="geometry" />
        </mxCell>
        <mxCell id="LS08MMSLiG0jWFHDryba-3" value="include" style="endArrow=open;endSize=12;dashed=1;html=1;rounded=0;entryX=1;entryY=0.5;entryDx=0;entryDy=0;exitX=0.5;exitY=0;exitDx=0;exitDy=0;" edge="1" parent="1" source="kO_Ikqnd_BB1pQEZiAFS-7" target="kO_Ikqnd_BB1pQEZiAFS-3">
          <mxGeometry width="160" relative="1" as="geometry">
            <mxPoint x="330" y="310" as="sourcePoint" />
            <mxPoint x="490" y="310" as="targetPoint" />
          </mxGeometry>
        </mxCell>
        <mxCell id="LS08MMSLiG0jWFHDryba-4" value="include" style="endArrow=open;endSize=12;dashed=1;html=1;rounded=0;entryX=0.5;entryY=1;entryDx=0;entryDy=0;exitX=0.973;exitY=0.267;exitDx=0;exitDy=0;exitPerimeter=0;" edge="1" parent="1" source="kO_Ikqnd_BB1pQEZiAFS-8" target="kO_Ikqnd_BB1pQEZiAFS-7">
          <mxGeometry width="160" relative="1" as="geometry">
            <mxPoint x="289.5" y="405" as="sourcePoint" />
            <mxPoint x="289.5" y="360" as="targetPoint" />
          </mxGeometry>
        </mxCell>
        <mxCell id="LS08MMSLiG0jWFHDryba-5" value="" style="endArrow=none;html=1;rounded=0;entryX=0;entryY=0.5;entryDx=0;entryDy=0;" edge="1" parent="1" source="kO_Ikqnd_BB1pQEZiAFS-1" target="kO_Ikqnd_BB1pQEZiAFS-3">
          <mxGeometry relative="1" as="geometry">
            <mxPoint x="330" y="410" as="sourcePoint" />
            <mxPoint x="490" y="410" as="targetPoint" />
          </mxGeometry>
        </mxCell>
        <mxCell id="LS08MMSLiG0jWFHDryba-6" value="" style="endArrow=none;html=1;rounded=0;entryX=0;entryY=0.5;entryDx=0;entryDy=0;exitX=0.5;exitY=0.5;exitDx=0;exitDy=0;exitPerimeter=0;" edge="1" parent="1" source="kO_Ikqnd_BB1pQEZiAFS-1" target="kO_Ikqnd_BB1pQEZiAFS-7">
          <mxGeometry relative="1" as="geometry">
            <mxPoint x="130" y="330" as="sourcePoint" />
            <mxPoint x="250" y="250" as="targetPoint" />
          </mxGeometry>
        </mxCell>
        <mxCell id="LS08MMSLiG0jWFHDryba-7" value="" style="endArrow=none;html=1;rounded=0;entryX=0;entryY=0.5;entryDx=0;entryDy=0;" edge="1" parent="1" source="kO_Ikqnd_BB1pQEZiAFS-1" target="kO_Ikqnd_BB1pQEZiAFS-8">
          <mxGeometry relative="1" as="geometry">
            <mxPoint x="140" y="340" as="sourcePoint" />
            <mxPoint x="260" y="260" as="targetPoint" />
          </mxGeometry>
        </mxCell>
        <mxCell id="LS08MMSLiG0jWFHDryba-8" value="Plateforme de commande de nourriture en ligne" style="text;html=1;align=center;verticalAlign=middle;resizable=0;points=[];autosize=1;strokeColor=none;fillColor=none;" vertex="1" parent="1">
          <mxGeometry x="220" y="168" width="280" height="30" as="geometry" />
        </mxCell>
        <mxCell id="LS08MMSLiG0jWFHDryba-10" value="" style="endArrow=none;html=1;rounded=0;entryX=0;entryY=0.5;entryDx=0;entryDy=0;" edge="1" parent="1" source="kO_Ikqnd_BB1pQEZiAFS-15" target="kO_Ikqnd_BB1pQEZiAFS-10">
          <mxGeometry relative="1" as="geometry">
            <mxPoint x="120" y="414" as="sourcePoint" />
            <mxPoint x="240" y="490" as="targetPoint" />
          </mxGeometry>
        </mxCell>
        <mxCell id="LS08MMSLiG0jWFHDryba-11" value="" style="endArrow=none;html=1;rounded=0;entryX=0;entryY=0.5;entryDx=0;entryDy=0;" edge="1" parent="1" source="kO_Ikqnd_BB1pQEZiAFS-15" target="kO_Ikqnd_BB1pQEZiAFS-14">
          <mxGeometry relative="1" as="geometry">
            <mxPoint x="120" y="531" as="sourcePoint" />
            <mxPoint x="220" y="540" as="targetPoint" />
          </mxGeometry>
        </mxCell>
        <mxCell id="LS08MMSLiG0jWFHDryba-12" value="Soulever un litige" style="ellipse;whiteSpace=wrap;html=1;" vertex="1" parent="1">
          <mxGeometry x="364" y="355" width="100" height="45" as="geometry" />
        </mxCell>
        <mxCell id="LS08MMSLiG0jWFHDryba-13" value="Recevoir ordre de livraison" style="ellipse;whiteSpace=wrap;html=1;" vertex="1" parent="1">
          <mxGeometry x="340" y="590" width="120" height="60" as="geometry" />
        </mxCell>
        <mxCell id="LS08MMSLiG0jWFHDryba-14" value="Valider commande livrÃ©e&amp;nbsp;" style="ellipse;whiteSpace=wrap;html=1;" vertex="1" parent="1">
          <mxGeometry x="264" y="670" width="100" height="50" as="geometry" />
        </mxCell>
        <mxCell id="LS08MMSLiG0jWFHDryba-15" value="" style="endArrow=none;html=1;rounded=0;entryX=0;entryY=0.5;entryDx=0;entryDy=0;" edge="1" parent="1" source="kO_Ikqnd_BB1pQEZiAFS-15" target="kO_Ikqnd_BB1pQEZiAFS-23">
          <mxGeometry relative="1" as="geometry">
            <mxPoint x="120" y="540" as="sourcePoint" />
            <mxPoint x="220" y="605" as="targetPoint" />
          </mxGeometry>
        </mxCell>
        <mxCell id="LS08MMSLiG0jWFHDryba-16" value="" style="endArrow=none;html=1;rounded=0;entryX=0;entryY=0.5;entryDx=0;entryDy=0;" edge="1" parent="1" source="kO_Ikqnd_BB1pQEZiAFS-1" target="LS08MMSLiG0jWFHDryba-12">
          <mxGeometry relative="1" as="geometry">
            <mxPoint x="130" y="349" as="sourcePoint" />
            <mxPoint x="250" y="425" as="targetPoint" />
          </mxGeometry>
        </mxCell>
        <mxCell id="LS08MMSLiG0jWFHDryba-17" value="" style="endArrow=open;endFill=1;endSize=12;html=1;rounded=0;exitX=0.803;exitY=1.042;exitDx=0;exitDy=0;entryX=0.278;entryY=0.033;entryDx=0;entryDy=0;entryPerimeter=0;exitPerimeter=0;" edge="1" parent="1" source="kO_Ikqnd_BB1pQEZiAFS-23" target="LS08MMSLiG0jWFHDryba-13">
          <mxGeometry width="160" relative="1" as="geometry">
            <mxPoint x="330" y="620" as="sourcePoint" />
            <mxPoint x="490" y="620" as="targetPoint" />
          </mxGeometry>
        </mxCell>
        <mxCell id="LS08MMSLiG0jWFHDryba-22" value="" style="endArrow=none;html=1;rounded=0;entryX=0;entryY=0.5;entryDx=0;entryDy=0;exitX=0.5;exitY=0.5;exitDx=0;exitDy=0;exitPerimeter=0;" edge="1" parent="1" source="kO_Ikqnd_BB1pQEZiAFS-21" target="LS08MMSLiG0jWFHDryba-14">
          <mxGeometry relative="1" as="geometry">
            <mxPoint x="120" y="547" as="sourcePoint" />
            <mxPoint x="230" y="670" as="targetPoint" />
          </mxGeometry>
        </mxCell>
        <mxCell id="LS08MMSLiG0jWFHDryba-23" value="include" style="endArrow=open;endSize=12;dashed=1;html=1;rounded=0;exitX=0.273;exitY=0.013;exitDx=0;exitDy=0;exitPerimeter=0;entryX=0.967;entryY=0.68;entryDx=0;entryDy=0;entryPerimeter=0;" edge="1" parent="1" source="LS08MMSLiG0jWFHDryba-12" target="kO_Ikqnd_BB1pQEZiAFS-8">
          <mxGeometry width="160" relative="1" as="geometry">
            <mxPoint x="300" y="400" as="sourcePoint" />
            <mxPoint x="300" y="365" as="targetPoint" />
          </mxGeometry>
        </mxCell>
        <mxCell id="LS08MMSLiG0jWFHDryba-25" value="" style="endArrow=open;endFill=1;endSize=12;html=1;rounded=0;entryX=0.5;entryY=0;entryDx=0;entryDy=0;exitX=0.373;exitY=0.967;exitDx=0;exitDy=0;exitPerimeter=0;" edge="1" parent="1" source="kO_Ikqnd_BB1pQEZiAFS-8" target="kO_Ikqnd_BB1pQEZiAFS-10">
          <mxGeometry width="160" relative="1" as="geometry">
            <mxPoint x="330" y="400" as="sourcePoint" />
            <mxPoint x="490" y="400" as="targetPoint" />
          </mxGeometry>
        </mxCell>
        <mxCell id="LS08MMSLiG0jWFHDryba-26" value="include" style="endArrow=open;endSize=12;dashed=1;html=1;rounded=0;entryX=0.5;entryY=1;entryDx=0;entryDy=0;exitX=0.5;exitY=0;exitDx=0;exitDy=0;" edge="1" parent="1" source="kO_Ikqnd_BB1pQEZiAFS-14" target="kO_Ikqnd_BB1pQEZiAFS-10">
          <mxGeometry width="160" relative="1" as="geometry">
            <mxPoint x="331.5" y="519" as="sourcePoint" />
            <mxPoint x="398.5" y="511" as="targetPoint" />
          </mxGeometry>
        </mxCell>
        <mxCell id="LS08MMSLiG0jWFHDryba-28" value="include" style="endArrow=open;endSize=12;dashed=1;html=1;rounded=0;entryX=0.333;entryY=0.987;entryDx=0;entryDy=0;exitX=1;exitY=0;exitDx=0;exitDy=0;entryPerimeter=0;" edge="1" parent="1" source="kO_Ikqnd_BB1pQEZiAFS-23" target="kO_Ikqnd_BB1pQEZiAFS-14">
          <mxGeometry width="160" relative="1" as="geometry">
            <mxPoint x="439.5" y="605" as="sourcePoint" />
            <mxPoint x="310.5" y="565" as="targetPoint" />
          </mxGeometry>
        </mxCell>
        <mxCell id="LS08MMSLiG0jWFHDryba-29" value="" style="endArrow=none;html=1;rounded=0;entryX=0;entryY=0.5;entryDx=0;entryDy=0;exitX=0.5;exitY=0.5;exitDx=0;exitDy=0;exitPerimeter=0;" edge="1" parent="1" source="kO_Ikqnd_BB1pQEZiAFS-21" target="LS08MMSLiG0jWFHDryba-13">
          <mxGeometry relative="1" as="geometry">
            <mxPoint x="120" y="646" as="sourcePoint" />
            <mxPoint x="274" y="705" as="targetPoint" />
          </mxGeometry>
        </mxCell>
      </root>
    </mxGraphModel>
  </diagram>
</mxfile>
